<svg width="235" height="212" viewBox="0 0 235 212" fill="none" xmlns="http://www.w3.org/2000/svg">
<g clip-path="url(#clip0_2025_45)">
<path fill-rule="evenodd" clip-rule="evenodd" d="M185.173 98.7266C185.191 98.7585 185.209 98.7923 185.228 98.8242C185.305 98.9585 185.382 99.0937 185.458 99.2285C185.534 99.3624 185.61 99.4965 185.686 99.6309C185.74 99.729 185.794 99.8283 185.849 99.9268C185.942 100.095 186.034 100.264 186.126 100.433C186.164 100.502 186.202 100.572 186.239 100.642C186.351 100.85 186.462 101.059 186.572 101.268C186.592 101.304 186.612 101.341 186.631 101.378C186.731 101.569 186.831 101.76 186.929 101.951C187.157 102.396 187.379 102.844 187.599 103.294C187.657 103.413 187.715 103.531 187.772 103.65C187.964 104.049 188.152 104.45 188.337 104.853C188.401 104.993 188.466 105.133 188.529 105.273C188.594 105.417 188.658 105.561 188.722 105.705C188.779 105.834 188.836 105.964 188.893 106.093C188.976 106.284 189.059 106.477 189.141 106.669C189.175 106.751 189.212 106.832 189.246 106.914C189.315 107.078 189.384 107.243 189.452 107.408C189.496 107.513 189.54 107.618 189.583 107.724C189.654 107.897 189.724 108.071 189.793 108.244C189.843 108.37 189.894 108.496 189.943 108.622C190.004 108.776 190.064 108.93 190.123 109.084C190.172 109.211 190.221 109.339 190.27 109.466C190.327 109.616 190.382 109.768 190.438 109.919C190.494 110.069 190.551 110.219 190.605 110.369C190.655 110.504 190.703 110.641 190.752 110.776C190.797 110.901 190.842 111.026 190.886 111.151C190.941 111.31 190.996 111.469 191.051 111.628C191.101 111.773 191.151 111.919 191.2 112.064C191.235 112.167 191.269 112.271 191.304 112.374C191.36 112.545 191.417 112.716 191.473 112.887C191.626 113.359 191.774 113.834 191.918 114.31C191.952 114.421 191.985 114.532 192.019 114.644C192.071 114.819 192.122 114.996 192.173 115.173C192.206 115.288 192.24 115.403 192.272 115.518C192.312 115.658 192.352 115.8 192.391 115.94C192.441 116.12 192.49 116.301 192.539 116.481C192.547 116.512 192.556 116.543 192.564 116.574C192.577 116.62 192.587 116.666 192.6 116.712C192.66 116.937 192.72 117.164 192.777 117.39C192.801 117.482 192.824 117.574 192.847 117.666C192.888 117.829 192.929 117.993 192.969 118.157C193.002 118.294 193.036 118.431 193.068 118.568C193.107 118.73 193.145 118.893 193.183 119.055C193.216 119.199 193.249 119.343 193.281 119.487C193.317 119.647 193.353 119.806 193.388 119.966C193.414 120.089 193.441 120.212 193.467 120.335C193.5 120.491 193.532 120.648 193.564 120.804C193.597 120.962 193.63 121.12 193.661 121.278C193.692 121.433 193.722 121.589 193.752 121.744C193.787 121.927 193.822 122.111 193.855 122.294C193.872 122.385 193.889 122.476 193.905 122.566C193.947 122.796 193.987 123.026 194.026 123.256C194.036 123.313 194.047 123.371 194.057 123.428C194.093 123.645 194.128 123.862 194.162 124.079C194.181 124.198 194.2 124.317 194.219 124.436C194.244 124.596 194.267 124.757 194.291 124.918C194.309 125.042 194.328 125.167 194.346 125.292C194.376 125.504 194.405 125.716 194.434 125.928C194.44 125.974 194.447 126.022 194.453 126.068C194.458 126.106 194.462 126.145 194.467 126.183C194.49 126.359 194.513 126.535 194.534 126.711C194.552 126.853 194.568 126.996 194.585 127.138C194.603 127.293 194.62 127.45 194.638 127.605C194.654 127.756 194.671 127.908 194.687 128.059C194.704 128.228 194.722 128.398 194.738 128.567C194.749 128.678 194.759 128.79 194.77 128.9C194.788 129.104 194.807 129.308 194.824 129.512C194.832 129.609 194.841 129.707 194.849 129.805C194.865 130.007 194.88 130.21 194.895 130.412C194.902 130.52 194.91 130.628 194.917 130.735C194.926 130.871 194.935 131.008 194.943 131.144C194.954 131.308 194.964 131.472 194.973 131.637C194.98 131.777 194.987 131.917 194.994 132.058C195.002 132.216 195.01 132.375 195.017 132.533C195.025 132.722 195.031 132.91 195.038 133.099C195.043 133.229 195.047 133.359 195.051 133.489C195.055 133.621 195.059 133.754 195.062 133.886C195.066 134.042 195.069 134.198 195.072 134.354C195.076 134.546 195.079 134.737 195.081 134.929C195.082 135.05 195.083 135.172 195.084 135.294C195.085 135.438 195.085 135.583 195.085 135.727C195.085 135.862 195.086 135.999 195.085 136.135C195.084 136.354 195.08 136.574 195.077 136.793C195.076 136.872 195.075 136.952 195.073 137.031C195.07 137.209 195.067 137.387 195.062 137.564C195.059 137.685 195.056 137.807 195.053 137.928C195.047 138.112 195.041 138.297 195.034 138.481C195.029 138.627 195.023 138.773 195.017 138.918C195.01 139.072 195.002 139.227 194.994 139.382C194.987 139.532 194.979 139.682 194.971 139.832C194.963 139.974 194.954 140.115 194.945 140.257C194.935 140.425 194.925 140.593 194.913 140.761C194.908 140.834 194.904 140.908 194.898 140.981C194.882 141.214 194.864 141.447 194.846 141.679C194.835 141.807 194.824 141.935 194.812 142.063C194.8 142.212 194.787 142.361 194.773 142.509C194.758 142.68 194.742 142.851 194.725 143.021C194.711 143.163 194.697 143.306 194.682 143.447C194.669 143.564 194.656 143.682 194.644 143.799C194.621 144.004 194.597 144.21 194.573 144.415C194.564 144.492 194.554 144.569 194.545 144.646C194.519 144.859 194.493 145.072 194.465 145.285C194.458 145.334 194.453 145.384 194.446 145.434C194.415 145.671 194.382 145.909 194.349 146.146C194.327 146.298 194.304 146.451 194.281 146.603C194.265 146.715 194.249 146.827 194.231 146.939C194.203 147.122 194.174 147.306 194.145 147.488C194.119 147.644 194.094 147.8 194.068 147.955C194.048 148.078 194.027 148.201 194.006 148.323C193.979 148.48 193.951 148.638 193.923 148.795C193.904 148.898 193.885 149.002 193.866 149.105C193.829 149.306 193.791 149.507 193.753 149.707C193.723 149.863 193.692 150.02 193.661 150.176C193.636 150.303 193.61 150.431 193.584 150.558C193.546 150.745 193.507 150.932 193.467 151.119C193.445 151.222 193.423 151.324 193.4 151.427C193.364 151.596 193.326 151.766 193.288 151.936C193.259 152.065 193.23 152.194 193.2 152.323C193.16 152.496 193.119 152.67 193.078 152.843C193.048 152.971 193.017 153.1 192.986 153.228C192.943 153.407 192.898 153.586 192.854 153.765C192.832 153.852 192.809 153.94 192.787 154.027C192.586 154.816 192.371 155.601 192.144 156.383C192.104 156.518 192.065 156.653 192.025 156.787C191.997 156.884 191.968 156.981 191.938 157.077C191.884 157.26 191.828 157.442 191.771 157.624C191.734 157.746 191.695 157.869 191.656 157.991C191.603 158.16 191.549 158.329 191.494 158.498C191.445 158.651 191.394 158.805 191.344 158.958C191.306 159.073 191.267 159.189 191.229 159.304C191.076 159.756 190.92 160.208 190.759 160.658C190.722 160.76 190.686 160.863 190.649 160.965C190.479 161.434 190.302 161.902 190.122 162.368C190.069 162.506 190.016 162.645 189.962 162.783C189.577 163.764 189.17 164.738 188.742 165.704C188.678 165.849 188.613 165.993 188.548 166.137C188.517 166.206 188.486 166.275 188.455 166.344C188.368 166.536 188.279 166.728 188.189 166.92C188.123 167.062 188.057 167.204 187.99 167.346C187.932 167.469 187.874 167.592 187.815 167.715C187.747 167.858 187.675 168.001 187.605 168.145C187.529 168.301 187.453 168.459 187.375 168.615C187.321 168.725 187.266 168.834 187.211 168.943C187.143 169.078 187.076 169.213 187.008 169.347C186.935 169.489 186.862 169.631 186.788 169.773C186.718 169.909 186.646 170.045 186.575 170.181C186.506 170.312 186.437 170.443 186.367 170.573C186.289 170.72 186.21 170.866 186.131 171.012C186.077 171.111 186.023 171.211 185.969 171.31C185.887 171.459 185.805 171.608 185.722 171.757C185.647 171.89 185.571 172.024 185.496 172.157C185.419 172.294 185.341 172.431 185.263 172.567C185.232 172.62 185.203 172.674 185.173 172.727L179.977 181.727H235.086V209.727H121.086C121.056 209.727 121.026 209.726 120.996 209.726C120.797 209.725 120.598 209.725 120.399 209.723C120.286 209.722 120.172 209.72 120.059 209.719C119.823 209.715 119.588 209.712 119.353 209.706C119.303 209.705 119.254 209.703 119.205 209.702C118.981 209.696 118.758 209.689 118.534 209.682C118.428 209.678 118.322 209.674 118.216 209.67C117.997 209.661 117.778 209.652 117.559 209.642C117.498 209.639 117.437 209.636 117.376 209.633C117.119 209.62 116.862 209.605 116.604 209.59C116.556 209.587 116.508 209.585 116.46 209.582C116.217 209.567 115.974 209.549 115.73 209.531C115.662 209.526 115.593 209.522 115.524 209.517C115.335 209.502 115.145 209.486 114.956 209.471C114.821 209.459 114.685 209.449 114.55 209.437C114.431 209.426 114.313 209.415 114.194 209.404C113.997 209.386 113.799 209.367 113.602 209.347C113.507 209.337 113.412 209.326 113.317 209.316C113.125 209.296 112.933 209.276 112.741 209.254C112.565 209.234 112.39 209.213 112.214 209.191C112.103 209.178 111.991 209.165 111.88 209.151C111.719 209.131 111.559 209.11 111.398 209.089C111.241 209.068 111.084 209.047 110.928 209.025C110.782 209.005 110.636 208.984 110.49 208.963C110.35 208.943 110.209 208.923 110.068 208.901C109.899 208.876 109.73 208.849 109.561 208.822C109.422 208.8 109.283 208.779 109.145 208.757C109.02 208.736 108.895 208.714 108.771 208.693C108.589 208.663 108.408 208.632 108.228 208.601C108.059 208.571 107.89 208.54 107.721 208.509C107.62 208.49 107.52 208.472 107.42 208.453C107.238 208.419 107.055 208.383 106.873 208.348C106.729 208.319 106.584 208.292 106.439 208.263C106.333 208.241 106.227 208.218 106.12 208.196C105.942 208.159 105.763 208.123 105.585 208.085C105.382 208.042 105.18 207.996 104.978 207.951C104.906 207.935 104.834 207.92 104.762 207.903C104.579 207.862 104.396 207.819 104.214 207.776C104.074 207.744 103.933 207.711 103.793 207.678C103.622 207.637 103.451 207.594 103.28 207.552C103.185 207.528 103.09 207.504 102.995 207.48C102.781 207.426 102.566 207.371 102.353 207.315C102.268 207.293 102.183 207.271 102.099 207.249C102.044 207.234 101.988 207.221 101.933 207.206C101.805 207.172 101.677 207.136 101.549 207.101C101.43 207.068 101.311 207.036 101.192 207.003C101.026 206.957 100.861 206.909 100.695 206.861C100.573 206.826 100.451 206.791 100.329 206.756C100.156 206.705 99.9826 206.653 99.8096 206.601C99.6895 206.565 99.5691 206.529 99.4492 206.492C99.3092 206.449 99.1691 206.406 99.0293 206.362C98.8782 206.315 98.7269 206.268 98.5762 206.22C98.0913 206.065 97.6081 205.905 97.127 205.74C97.0574 205.716 96.9875 205.693 96.918 205.669C96.7018 205.594 96.4859 205.518 96.2705 205.441C96.2025 205.417 96.1344 205.393 96.0664 205.368C95.846 205.289 95.6259 205.208 95.4062 205.127C95.3488 205.106 95.2908 205.085 95.2334 205.063C95.026 204.986 94.819 204.907 94.6123 204.828C94.5248 204.795 94.437 204.761 94.3496 204.728C94.1546 204.652 93.9599 204.575 93.7656 204.498C93.6879 204.467 93.6098 204.436 93.5322 204.405C93.2954 204.31 93.059 204.214 92.8232 204.116C92.7943 204.104 92.7652 204.092 92.7363 204.08C92.5368 203.997 92.3374 203.914 92.1387 203.829C92.032 203.784 91.9248 203.739 91.8184 203.693C91.6207 203.608 91.4235 203.521 91.2266 203.435C91.1666 203.408 91.1067 203.381 91.0469 203.354C90.8633 203.273 90.6799 203.19 90.4971 203.107C90.3825 203.055 90.2676 203.004 90.1533 202.951C89.9903 202.876 89.8275 202.8 89.665 202.724C89.5665 202.677 89.4675 202.632 89.3691 202.585C89.194 202.502 89.0192 202.417 88.8447 202.333C88.7343 202.28 88.6238 202.226 88.5137 202.172C88.3948 202.114 88.2758 202.055 88.1572 201.996C87.9851 201.911 87.8131 201.824 87.6416 201.737C87.5174 201.674 87.3934 201.611 87.2695 201.547C87.165 201.493 87.0604 201.439 86.9561 201.385C86.7772 201.292 86.598 201.199 86.4199 201.104C86.3199 201.051 86.2199 200.998 86.1201 200.944C85.9689 200.863 85.8177 200.781 85.667 200.699C85.5416 200.631 85.416 200.562 85.291 200.493C85.154 200.417 85.0174 200.34 84.8809 200.264C84.7663 200.199 84.6513 200.135 84.5371 200.07C84.3724 199.977 84.208 199.882 84.0439 199.787C83.9451 199.73 83.8457 199.673 83.7471 199.615C83.599 199.529 83.4512 199.441 83.3037 199.354C83.1704 199.274 83.0372 199.194 82.9043 199.114C82.7694 199.033 82.6344 198.951 82.5 198.869C82.4164 198.818 82.3324 198.767 82.249 198.716C82.0689 198.605 81.8892 198.492 81.71 198.38C81.6139 198.32 81.5176 198.259 81.4219 198.198C81.2688 198.101 81.1162 198.003 80.9639 197.904C80.8682 197.843 80.7721 197.781 80.6768 197.719C80.5233 197.619 80.3705 197.517 80.2178 197.416C80.1098 197.344 80.0012 197.273 79.8936 197.201C79.7645 197.115 79.6354 197.028 79.5068 196.94C79.3777 196.853 79.2487 196.764 79.1201 196.676C78.9861 196.584 78.8522 196.491 78.7188 196.397C78.6198 196.328 78.5205 196.259 78.4219 196.189C78.2486 196.067 78.0756 195.944 77.9033 195.82C77.8438 195.778 77.784 195.734 77.7246 195.691C77.5326 195.553 77.3411 195.412 77.1504 195.271C77.0981 195.233 77.0454 195.194 76.9932 195.155C76.8248 195.03 76.6566 194.905 76.4893 194.778C76.3948 194.707 76.3002 194.635 76.2061 194.563C76.15 194.521 76.0931 194.478 76.0371 194.436C75.9747 194.388 75.9129 194.338 75.8506 194.29C75.6987 194.173 75.5465 194.055 75.3955 193.937C75.3303 193.885 75.2652 193.834 75.2002 193.782C75.0337 193.651 74.8676 193.518 74.7021 193.385C74.6259 193.323 74.5496 193.262 74.4736 193.2C74.318 193.074 74.1625 192.947 74.0078 192.819C73.8966 192.728 73.7855 192.635 73.6748 192.543C73.5726 192.458 73.47 192.372 73.3682 192.286C73.2277 192.168 73.0877 192.048 72.9482 191.929C72.859 191.852 72.7696 191.775 72.6807 191.698C72.5458 191.582 72.4113 191.464 72.2773 191.347C72.179 191.26 72.0804 191.174 71.9824 191.087C71.8583 190.977 71.7347 190.866 71.6113 190.755C71.5084 190.662 71.4051 190.57 71.3027 190.477C71.1448 190.333 70.9877 190.188 70.8311 190.043C70.7897 190.005 70.7473 189.967 70.7061 189.929C70.5369 189.772 70.3688 189.613 70.2012 189.454C70.1251 189.382 70.0485 189.31 69.9727 189.237C69.8577 189.128 69.7431 189.017 69.6289 188.906C69.5063 188.788 69.3836 188.668 69.2617 188.549C69.168 188.457 69.0747 188.364 68.9814 188.271C68.9079 188.199 68.833 188.126 68.7598 188.053C68.7369 188.03 68.7142 188.006 68.6914 187.983C68.3341 187.625 67.9806 187.263 67.6309 186.897C67.5488 186.812 67.4664 186.726 67.3848 186.64C67.2675 186.516 67.1506 186.391 67.0342 186.267C66.9504 186.177 66.8665 186.087 66.7832 185.997C66.6539 185.857 66.5247 185.717 66.3965 185.576C66.3104 185.482 66.2242 185.387 66.1387 185.292C66.0069 185.146 65.8757 184.999 65.7451 184.852C65.6857 184.785 65.6256 184.718 65.5664 184.65C65.4282 184.494 65.2902 184.336 65.1533 184.178C65.0892 184.104 65.0248 184.029 64.9609 183.955C64.8424 183.817 64.7249 183.678 64.6074 183.539C64.5239 183.44 64.4394 183.342 64.3564 183.243C63.8413 182.628 63.3368 182.004 62.8418 181.372C62.7789 181.292 62.7158 181.211 62.6533 181.131C62.5166 180.955 62.3803 180.778 62.2451 180.601C62.1898 180.528 62.1341 180.455 62.0791 180.383C62.0038 180.283 61.9293 180.183 61.8545 180.083C61.7425 179.933 61.6294 179.784 61.5186 179.634C61.3717 179.435 61.2259 179.234 61.0811 179.033C61.0689 179.016 61.0561 178.999 61.0439 178.982C60.9182 178.808 60.7941 178.632 60.6699 178.456C60.6088 178.37 60.5471 178.283 60.4863 178.196C60.3903 178.059 60.2953 177.921 60.2002 177.783C60.1207 177.668 60.0407 177.553 59.9619 177.438C59.8818 177.32 59.8021 177.202 59.7227 177.084C59.6248 176.939 59.5265 176.793 59.4297 176.647C59.3718 176.56 59.3143 176.472 59.2568 176.385C59.1503 176.223 59.0437 176.06 58.9385 175.897C58.867 175.787 58.7964 175.675 58.7256 175.564C58.645 175.438 58.5632 175.312 58.4834 175.186C58.3955 175.046 58.3086 174.906 58.2217 174.766C58.1424 174.638 58.0629 174.51 57.9844 174.382C57.9063 174.254 57.8292 174.126 57.752 173.998C57.6756 173.872 57.599 173.745 57.5234 173.618C57.4494 173.494 57.3761 173.369 57.3027 173.244C57.2135 173.092 57.1242 172.94 57.0361 172.788C57.0243 172.768 57.0118 172.747 57 172.727L51.8027 163.726L24.248 211.454L0 197.454L57 98.7266C57.0128 98.7044 57.0263 98.6823 57.0391 98.6602C57.1161 98.527 57.1936 98.3935 57.2715 98.2607C57.3641 98.103 57.4571 97.945 57.5508 97.7881C57.6518 97.6189 57.755 97.4506 57.8574 97.2822C57.8985 97.2147 57.9392 97.1465 57.9805 97.0791C58.0757 96.9235 58.1721 96.7682 58.2686 96.6133C58.3457 96.4894 58.4222 96.3646 58.5 96.2412C58.5826 96.1102 58.6675 95.9801 58.751 95.8496C58.8225 95.7379 58.8928 95.625 58.9648 95.5137C59.0759 95.3421 59.1893 95.1716 59.3018 95.001C59.3559 94.9188 59.4094 94.8358 59.4639 94.7539C59.6009 94.5478 59.7398 94.3425 59.8789 94.1377C59.9095 94.0926 59.94 94.047 59.9707 94.002C60.0636 93.8658 60.1581 93.7303 60.252 93.5947C60.5037 93.2312 60.7578 92.8692 61.0156 92.5107C61.1014 92.3915 61.1889 92.2731 61.2754 92.1543C61.3752 92.0173 61.4745 91.8794 61.5752 91.7432C61.6241 91.677 61.6735 91.6109 61.7227 91.5449C62.219 90.878 62.7258 90.2197 63.2432 89.5713C63.2788 89.5267 63.3149 89.482 63.3506 89.4375C64.4589 88.0551 65.6152 86.7157 66.8154 85.4209C66.857 85.376 66.8987 85.3309 66.9404 85.2861C67.7279 84.4409 68.5346 83.6148 69.3594 82.8086C69.4438 82.7261 69.5285 82.6436 69.6133 82.5615C69.7338 82.4448 69.8553 82.3287 69.9766 82.2129C70.0631 82.1302 70.1504 82.048 70.2373 81.9658C70.5968 81.6258 70.9591 81.2886 71.3252 80.9561C71.4118 80.8774 71.499 80.799 71.5859 80.7207C71.7348 80.5867 71.8842 80.453 72.0342 80.3203C72.0942 80.2672 72.1546 80.2141 72.2148 80.1611C72.3884 80.0085 72.5624 79.856 72.7373 79.7051C72.8011 79.6501 72.8658 79.5958 72.9297 79.541C73.0881 79.4052 73.2467 79.2692 73.4062 79.1348C73.4962 79.059 73.5865 78.9835 73.6768 78.9082C73.7942 78.8102 73.9122 78.7125 74.0303 78.6152C74.1636 78.5054 74.2976 78.396 74.4316 78.2871C74.543 78.1967 74.6547 78.1064 74.7666 78.0166C74.8688 77.9346 74.9716 77.8529 75.0742 77.7715C75.2114 77.6626 75.3484 77.5532 75.4863 77.4453C75.5937 77.3613 75.7018 77.2777 75.8096 77.1943C75.9384 77.0947 76.0678 76.9953 76.1973 76.8965C76.3057 76.8138 76.4146 76.7315 76.5234 76.6494C76.663 76.5442 76.8031 76.4392 76.9434 76.335C77.0317 76.2693 77.1204 76.2039 77.209 76.1387C77.3644 76.0242 77.5204 75.9101 77.6768 75.7969C77.7719 75.728 77.8674 75.6593 77.9629 75.5908C78.1045 75.4893 78.2463 75.3877 78.3887 75.2871C78.5016 75.2073 78.6151 75.128 78.7285 75.0488C78.8697 74.9503 79.0115 74.8524 79.1533 74.7549C79.2455 74.6915 79.3382 74.6284 79.4307 74.5654C79.856 74.2757 80.2844 73.9899 80.7158 73.709C80.7747 73.6706 80.8336 73.6319 80.8926 73.5938C81.0635 73.4832 81.2354 73.3738 81.4072 73.2646C81.5157 73.1957 81.6246 73.1269 81.7334 73.0586C81.8912 72.9595 82.0494 72.8606 82.208 72.7627C82.3079 72.701 82.4086 72.6403 82.5088 72.5791C82.6535 72.4907 82.7981 72.4019 82.9434 72.3145C83.0603 72.2441 83.1776 72.1742 83.2949 72.1045C83.4294 72.0246 83.5643 71.9452 83.6992 71.8662C83.8181 71.7966 83.9373 71.7271 84.0566 71.6582C84.2245 71.5612 84.3929 71.4648 84.5615 71.3691C84.6286 71.3311 84.6956 71.2927 84.7627 71.2549C84.9542 71.147 85.1463 71.0398 85.3389 70.9336C85.4163 70.8909 85.4938 70.8481 85.5713 70.8057C85.7619 70.7014 85.953 70.5977 86.1445 70.4951C86.2109 70.4596 86.2773 70.424 86.3438 70.3887C86.7918 70.1504 87.2431 69.9176 87.6963 69.6885C87.8215 69.6252 87.9467 69.5616 88.0723 69.499C88.2145 69.4281 88.3573 69.3581 88.5 69.2881C88.6011 69.2385 88.7024 69.1888 88.8037 69.1396C88.9898 69.0494 89.1764 68.9598 89.3633 68.8711C89.4474 68.8312 89.5319 68.7916 89.6162 68.752C89.7896 68.6705 89.9636 68.5899 90.1377 68.5098C90.2534 68.4565 90.3693 68.4033 90.4854 68.3506C90.6669 68.2681 90.849 68.1865 91.0312 68.1055C91.0839 68.082 91.1367 68.0585 91.1895 68.0352C91.3999 67.9422 91.6108 67.8498 91.8223 67.7588C91.9227 67.7155 92.0234 67.6727 92.124 67.6299C92.3157 67.5484 92.5078 67.4676 92.7002 67.3877C92.7483 67.3677 92.7966 67.348 92.8447 67.3281C93.0662 67.2367 93.2882 67.146 93.5107 67.0566C93.6024 67.0198 93.6944 66.9837 93.7861 66.9473C93.9571 66.8794 94.1283 66.8117 94.2998 66.7451C94.4125 66.7013 94.5257 66.6585 94.6387 66.6152C94.8346 66.5403 95.0309 66.4659 95.2275 66.3926C95.2728 66.3757 95.318 66.3586 95.3633 66.3418C95.6023 66.2532 95.8419 66.1653 96.082 66.0791C96.1473 66.0557 96.213 66.033 96.2783 66.0098C96.4672 65.9426 96.6562 65.8753 96.8457 65.8096C96.9695 65.7667 97.0938 65.7249 97.2178 65.6826C97.3834 65.6262 97.5488 65.5689 97.7148 65.5137C97.8646 65.4638 98.0149 65.4151 98.165 65.3662C98.2818 65.3282 98.3987 65.2904 98.5156 65.2529C98.6872 65.198 98.8593 65.1445 99.0312 65.0908C99.1672 65.0484 99.3032 65.0056 99.4395 64.9639C99.5737 64.9228 99.7083 64.8831 99.8428 64.8428C99.9953 64.7971 100.148 64.7508 100.301 64.7061C100.43 64.6682 100.56 64.6309 100.689 64.5938C100.862 64.5442 101.036 64.4947 101.209 64.4463C101.315 64.4167 101.421 64.3875 101.527 64.3584C101.662 64.3214 101.797 64.2843 101.933 64.248C101.987 64.2334 102.042 64.2186 102.097 64.2041C102.186 64.1805 102.275 64.1581 102.364 64.1348C102.573 64.0801 102.783 64.0255 102.992 63.9727C103.105 63.9443 103.217 63.9175 103.33 63.8896C103.482 63.852 103.635 63.814 103.787 63.7773C103.961 63.7354 104.136 63.6949 104.311 63.6543C104.447 63.6225 104.583 63.5905 104.72 63.5596C104.899 63.5189 105.078 63.4797 105.258 63.4404C105.354 63.4193 105.45 63.3977 105.547 63.377C105.733 63.337 105.919 63.2983 106.105 63.2598C106.203 63.2397 106.299 63.2189 106.396 63.1992L106.582 63.1621C106.67 63.1444 106.759 63.1277 106.848 63.1104C107.042 63.0722 107.237 63.0337 107.432 62.9971C107.505 62.9833 107.579 62.9706 107.652 62.957C107.866 62.9177 108.079 62.8783 108.292 62.8408C108.423 62.8179 108.554 62.7967 108.685 62.7744C108.856 62.7453 109.027 62.7154 109.198 62.6875C109.291 62.6725 109.383 62.6582 109.476 62.6436C109.693 62.609 109.91 62.5746 110.128 62.542C110.189 62.5328 110.251 62.5247 110.312 62.5156C110.545 62.4814 110.778 62.447 111.011 62.415C111.073 62.4065 111.134 62.399 111.196 62.3906C111.736 62.3178 112.277 62.2503 112.817 62.1895C112.897 62.1805 112.977 62.1728 113.057 62.1641C113.284 62.1393 113.51 62.1144 113.737 62.0918C113.796 62.086 113.855 62.0809 113.913 62.0752C114.165 62.0507 114.416 62.0278 114.668 62.0059C114.686 62.0043 114.704 62.0025 114.723 62.001C115.902 61.8992 117.082 61.8263 118.263 61.7812C118.344 61.7782 118.425 61.7753 118.506 61.7725C118.748 61.764 118.991 61.7561 119.233 61.75C119.257 61.7494 119.281 61.7486 119.305 61.748C119.569 61.7417 119.833 61.7369 120.097 61.7334C120.186 61.7322 120.275 61.7313 120.364 61.7305C120.522 61.7289 120.68 61.7271 120.838 61.7266H131.479L103.924 14L128.173 0L185.173 98.7266ZM120.147 89.7383C119.967 89.742 119.787 89.7471 119.606 89.7529C119.414 89.7591 119.221 89.7658 119.028 89.7744C118.838 89.7829 118.649 89.7929 118.459 89.8037C118.268 89.8146 118.077 89.8265 117.887 89.8398C117.718 89.8516 117.549 89.8643 117.38 89.8779C117.156 89.896 116.932 89.9151 116.708 89.9365C116.571 89.9496 116.435 89.9643 116.299 89.9785C116.06 90.0036 115.82 90.0298 115.581 90.0586C115.438 90.0758 115.295 90.0947 115.152 90.1133C114.931 90.1421 114.71 90.172 114.488 90.2041C114.321 90.2284 114.153 90.2542 113.986 90.2803C113.793 90.3105 113.599 90.3413 113.406 90.374C113.225 90.4047 113.044 90.4369 112.863 90.4697C112.663 90.5061 112.463 90.543 112.264 90.582C112.089 90.6161 111.915 90.6524 111.741 90.6885C111.556 90.7269 111.371 90.7659 111.187 90.8066C111.009 90.8457 110.833 90.8857 110.656 90.9268C110.455 90.9737 110.253 91.0216 110.052 91.0713C109.516 91.2037 108.983 91.3466 108.453 91.498C108.254 91.5551 108.054 91.6122 107.855 91.6719C107.703 91.7175 107.552 91.7653 107.4 91.8125C107.204 91.8737 107.008 91.9353 106.812 91.999C106.644 92.0541 106.476 92.111 106.308 92.168C106.106 92.2365 105.904 92.3048 105.703 92.376C105.564 92.4254 105.426 92.4776 105.287 92.5283C105.085 92.6024 104.882 92.6761 104.681 92.7529C104.504 92.8205 104.327 92.8902 104.151 92.96C103.978 93.0285 103.805 93.0973 103.633 93.168C103.482 93.2298 103.332 93.2939 103.182 93.3574C102.97 93.4468 102.759 93.5365 102.549 93.6289C102.434 93.6793 102.32 93.7309 102.206 93.7822C101.982 93.8829 101.759 93.9838 101.537 94.0879C101.409 94.1479 101.283 94.2103 101.155 94.2715C100.944 94.373 100.733 94.4744 100.523 94.5791C100.4 94.6408 100.277 94.7047 100.154 94.7676C99.9457 94.8742 99.7371 94.9811 99.5303 95.0908C99.4011 95.1593 99.273 95.2301 99.1445 95.2998C98.9437 95.4088 98.743 95.518 98.5439 95.6299C98.423 95.6979 98.303 95.7678 98.1826 95.8369C97.9791 95.9538 97.7759 96.0715 97.5742 96.1914C97.4311 96.2765 97.2888 96.3635 97.1465 96.4502C96.9844 96.549 96.8219 96.6473 96.6611 96.748C96.492 96.854 96.324 96.9621 96.1562 97.0703C95.9993 97.1715 95.8422 97.2729 95.6865 97.376C95.5478 97.4678 95.4102 97.5619 95.2725 97.6553C95.0961 97.7748 94.9197 97.8946 94.7451 98.0166C94.6015 98.1169 94.459 98.2193 94.3164 98.3213C94.1666 98.4285 94.0166 98.5356 93.8682 98.6445C93.7087 98.7616 93.5506 98.8808 93.3926 99C93.2411 99.1142 93.0895 99.2286 92.9395 99.3447C92.8046 99.449 92.6709 99.5552 92.5371 99.6611C92.3757 99.7889 92.2143 99.917 92.0547 100.047C91.93 100.148 91.8064 100.252 91.6826 100.354C91.5164 100.493 91.3499 100.631 91.1855 100.771C91.0533 100.885 90.9221 101 90.791 101.114C90.642 101.245 90.493 101.375 90.3457 101.508C90.2243 101.617 90.1038 101.727 89.9834 101.838C89.8141 101.993 89.6455 102.15 89.4785 102.308C89.3838 102.397 89.2894 102.488 89.1953 102.578C88.7426 103.014 88.2983 103.459 87.8633 103.913C87.7676 104.013 87.6728 104.114 87.5781 104.215C87.4256 104.377 87.2733 104.54 87.123 104.704C87.0005 104.838 86.8796 104.974 86.7588 105.109C86.6325 105.251 86.5064 105.393 86.3818 105.536C86.2667 105.668 86.1526 105.802 86.0391 105.936C85.9023 106.096 85.7655 106.258 85.6309 106.421C85.5215 106.553 85.4135 106.687 85.3057 106.82C85.1835 106.972 85.0617 107.124 84.9414 107.276C84.8202 107.43 84.7002 107.586 84.5811 107.741C84.474 107.881 84.3672 108.021 84.2617 108.162C84.1476 108.315 84.035 108.468 83.9229 108.622C83.8111 108.775 83.6998 108.929 83.5898 109.084C83.4846 109.232 83.3798 109.381 83.2764 109.53C83.1619 109.695 83.0479 109.861 82.9355 110.028C82.8394 110.171 82.7449 110.315 82.6504 110.459C82.535 110.635 82.4198 110.811 82.3066 110.988C82.2168 111.129 82.1283 111.271 82.04 111.413C81.9358 111.581 81.8307 111.748 81.7285 111.917C77.4196 119.04 75.086 127.263 75.0859 135.727C75.086 144.18 77.4145 152.394 81.7139 159.512C81.8155 159.68 81.9197 159.847 82.0234 160.014C82.1166 160.164 82.2097 160.314 82.3047 160.463C82.4078 160.624 82.5131 160.785 82.6182 160.945C82.7262 161.11 82.8351 161.275 82.9453 161.438C83.0433 161.584 83.1426 161.729 83.2422 161.873C83.3526 162.033 83.4636 162.193 83.5762 162.352C83.6887 162.51 83.8035 162.667 83.918 162.824C84.0194 162.963 84.1206 163.103 84.2236 163.241C84.3389 163.396 84.4561 163.549 84.5732 163.702C84.6935 163.859 84.8142 164.016 84.9365 164.172C85.0424 164.306 85.1504 164.44 85.2578 164.573C85.3893 164.737 85.5214 164.9 85.6553 165.062C85.761 165.189 85.8685 165.316 85.9756 165.442C86.1063 165.597 86.2373 165.751 86.3701 165.904C86.4983 166.052 86.6287 166.198 86.7588 166.344C86.8714 166.47 86.9845 166.597 87.0986 166.722C87.2379 166.874 87.3792 167.026 87.5205 167.177C87.6394 167.304 87.7585 167.431 87.8789 167.557C88.2785 167.974 88.6872 168.382 89.1025 168.784C89.2375 168.915 89.3724 169.046 89.5088 169.175C89.641 169.3 89.7755 169.423 89.9092 169.546C90.0552 169.681 90.2011 169.816 90.3486 169.948C90.4851 170.071 90.6237 170.192 90.7617 170.312C90.9019 170.435 91.0421 170.559 91.1836 170.68C91.3485 170.821 91.5156 170.96 91.6826 171.099C91.8013 171.197 91.9195 171.297 92.0391 171.395C92.2085 171.532 92.3803 171.668 92.5518 171.804C92.985 172.146 93.4229 172.482 93.8672 172.809C94.0081 172.912 94.1509 173.013 94.293 173.115C94.4449 173.224 94.5968 173.333 94.75 173.44C94.9378 173.572 95.1278 173.7 95.3174 173.828C95.4374 173.909 95.5571 173.991 95.6777 174.071C95.8379 174.177 95.9997 174.282 96.1611 174.386C96.3301 174.495 96.4996 174.603 96.6699 174.71C96.8241 174.807 96.9795 174.901 97.1348 174.996C97.2916 175.092 97.4486 175.188 97.6064 175.281C97.7903 175.39 97.9759 175.497 98.1611 175.604C98.2903 175.678 98.419 175.753 98.5488 175.826C98.7592 175.944 98.9714 176.06 99.1836 176.175C99.3022 176.239 99.4208 176.304 99.54 176.367C99.7437 176.475 99.949 176.581 100.154 176.686C100.286 176.753 100.418 176.821 100.551 176.887C100.742 176.982 100.934 177.075 101.126 177.168C101.276 177.24 101.427 177.313 101.578 177.384C101.771 177.474 101.964 177.562 102.158 177.649C102.296 177.712 102.434 177.774 102.572 177.835C102.763 177.919 102.955 178.001 103.147 178.082C103.318 178.154 103.489 178.227 103.661 178.297C103.83 178.366 103.999 178.433 104.169 178.5C104.34 178.568 104.512 178.636 104.684 178.701C104.89 178.78 105.098 178.857 105.306 178.933C105.441 178.982 105.578 179.032 105.714 179.08C105.912 179.15 106.111 179.219 106.31 179.286C106.481 179.344 106.654 179.403 106.826 179.459C107.011 179.519 107.198 179.578 107.384 179.636C107.546 179.686 107.709 179.737 107.872 179.786C108.063 179.843 108.255 179.898 108.446 179.953C108.986 180.107 109.528 180.252 110.073 180.387C110.258 180.432 110.442 180.476 110.627 180.52C110.806 180.561 110.986 180.603 111.166 180.643C111.353 180.684 111.542 180.723 111.729 180.762C111.912 180.8 112.094 180.837 112.277 180.873C112.479 180.912 112.682 180.95 112.885 180.986C113.033 181.013 113.181 181.041 113.33 181.066C113.567 181.107 113.804 181.145 114.041 181.182C114.177 181.203 114.314 181.224 114.45 181.244C114.683 181.278 114.917 181.309 115.15 181.34C115.291 181.358 115.432 181.377 115.573 181.394C115.791 181.42 116.009 181.444 116.227 181.467C116.402 181.485 116.577 181.504 116.752 181.521C116.928 181.537 117.103 181.552 117.279 181.566C117.482 181.583 117.684 181.599 117.887 181.613C118.064 181.626 118.241 181.636 118.418 181.646C118.619 181.658 118.821 181.67 119.022 181.679C119.212 181.687 119.402 181.693 119.592 181.699C119.758 181.705 119.925 181.71 120.092 181.714C122.425 181.764 124.765 181.64 127.09 181.334C133.079 180.546 138.854 178.585 144.086 175.564C149.317 172.544 153.903 168.523 157.58 163.73C158.998 161.883 160.268 159.933 161.386 157.901C161.48 157.731 161.572 157.559 161.664 157.388C161.749 157.228 161.835 157.068 161.918 156.907C162.008 156.733 162.097 156.558 162.185 156.383C162.268 156.216 162.351 156.049 162.433 155.882C162.515 155.712 162.596 155.541 162.677 155.37C162.754 155.206 162.832 155.042 162.907 154.877C162.986 154.704 163.065 154.53 163.142 154.356C163.218 154.183 163.295 154.009 163.37 153.835C163.451 153.646 163.53 153.456 163.608 153.266C163.669 153.12 163.728 152.973 163.787 152.826C163.869 152.622 163.949 152.416 164.027 152.211C164.086 152.058 164.145 151.904 164.202 151.75C164.28 151.54 164.357 151.33 164.432 151.119C164.483 150.976 164.533 150.832 164.583 150.688C164.646 150.503 164.708 150.318 164.769 150.134C164.829 149.951 164.889 149.768 164.947 149.584C164.998 149.423 165.047 149.262 165.096 149.101C165.156 148.903 165.216 148.705 165.273 148.506C165.43 147.965 165.576 147.422 165.712 146.877C165.759 146.689 165.805 146.501 165.85 146.312C165.888 146.15 165.924 145.988 165.961 145.825C166.005 145.63 166.048 145.433 166.09 145.237C166.129 145.052 166.166 144.865 166.203 144.679C166.239 144.5 166.274 144.321 166.308 144.142C166.344 143.943 166.379 143.744 166.413 143.546C166.442 143.378 166.472 143.209 166.499 143.041C166.535 142.819 166.568 142.597 166.601 142.375C166.621 142.237 166.641 142.098 166.66 141.96C166.692 141.73 166.72 141.5 166.748 141.27C166.766 141.125 166.784 140.98 166.8 140.835C166.824 140.618 166.846 140.399 166.867 140.182C166.884 140.009 166.901 139.835 166.916 139.662C166.932 139.473 166.946 139.282 166.96 139.093C166.974 138.908 166.987 138.723 166.998 138.538C167.009 138.362 167.018 138.184 167.026 138.008C167.036 137.811 167.045 137.613 167.053 137.416C167.059 137.234 167.065 137.051 167.069 136.869C167.074 136.689 167.078 136.508 167.08 136.328C167.083 136.12 167.083 135.911 167.083 135.702C167.083 135.534 167.083 135.366 167.081 135.198C167.079 134.981 167.073 134.763 167.067 134.545C167.063 134.394 167.06 134.242 167.055 134.091C167.047 133.876 167.038 133.661 167.027 133.446C167.019 133.278 167.01 133.11 167 132.941C166.987 132.728 166.971 132.514 166.955 132.301C166.943 132.144 166.932 131.986 166.919 131.829C166.9 131.601 166.877 131.372 166.854 131.144C166.838 130.984 166.822 130.824 166.805 130.664C166.741 130.087 166.665 129.51 166.579 128.935C166.556 128.778 166.533 128.622 166.508 128.466C166.473 128.25 166.436 128.035 166.398 127.819C166.368 127.646 166.338 127.473 166.306 127.3C166.276 127.142 166.245 126.984 166.214 126.826C166.172 126.613 166.129 126.4 166.084 126.188C166.049 126.025 166.013 125.862 165.977 125.699C165.931 125.494 165.885 125.288 165.836 125.084C165.799 124.931 165.761 124.777 165.723 124.624C165.58 124.052 165.429 123.482 165.265 122.916C165.208 122.719 165.148 122.523 165.088 122.327C165.038 122.164 164.988 122 164.937 121.837C164.877 121.65 164.816 121.464 164.755 121.278C164.697 121.102 164.638 120.926 164.578 120.751C164.51 120.553 164.44 120.356 164.369 120.16C164.317 120.016 164.265 119.871 164.212 119.728C164.133 119.515 164.052 119.302 163.97 119.091C163.914 118.947 163.858 118.803 163.801 118.659C163.717 118.449 163.631 118.24 163.544 118.032C163.483 117.886 163.421 117.739 163.358 117.593C163.28 117.411 163.2 117.23 163.12 117.049C163.05 116.891 162.979 116.732 162.907 116.574C162.81 116.362 162.711 116.151 162.61 115.94C162.546 115.806 162.482 115.672 162.417 115.538C162.336 115.373 162.253 115.209 162.171 115.045C162.083 114.87 161.995 114.694 161.904 114.521C161.821 114.36 161.735 114.2 161.649 114.04C161.555 113.863 161.459 113.686 161.362 113.51C157.348 106.233 151.403 100.114 144.086 95.8896C136.757 91.6582 128.47 89.5687 120.147 89.7383Z" fill="#100F0F"/>
</g>
<defs>
<clipPath id="clip0_2025_45">
<rect width="235" height="212" fill="white"/>
</clipPath>
</defs>
</svg>
